<?xml version="1.0" encoding="UTF-8" standalone="no"?>
<svg
   xmlns:dc="http://purl.org/dc/elements/1.1/"
   xmlns:cc="http://creativecommons.org/ns#"
   xmlns:rdf="http://www.w3.org/1999/02/22-rdf-syntax-ns#"
   xmlns:svg="http://www.w3.org/2000/svg"
   xmlns="http://www.w3.org/2000/svg"
   xmlns:sodipodi="http://sodipodi.sourceforge.net/DTD/sodipodi-0.dtd"
   xmlns:inkscape="http://www.inkscape.org/namespaces/inkscape"
   version="1.1"
   width="109.44263"
   height="109.85844"
   id="svg6"
   sodipodi:docname="-Recycle-Simbol.svg"
   inkscape:version="0.92.3 (2405546, 2018-03-11)">
  <metadata
     id="metadata12">
    <rdf:RDF>
      <cc:Work
         rdf:about="">
        <dc:format>image/svg+xml</dc:format>
        <dc:type
           rdf:resource="http://purl.org/dc/dcmitype/StillImage" />
        <dc:title></dc:title>
      </cc:Work>
    </rdf:RDF>
  </metadata>
  <defs
     id="defs10" />
  <sodipodi:namedview
     pagecolor="#ffffff"
     bordercolor="#666666"
     borderopacity="1"
     objecttolerance="10"
     gridtolerance="10"
     guidetolerance="10"
     inkscape:pageopacity="0"
     inkscape:pageshadow="2"
     inkscape:window-width="1873"
     inkscape:window-height="1056"
     id="namedview8"
     showgrid="false"
     fit-margin-top="0"
     fit-margin-left="0"
     fit-margin-right="0"
     fit-margin-bottom="0"
     inkscape:zoom="7.7372301"
     inkscape:cx="54.721313"
     inkscape:cy="54.929218"
     inkscape:window-x="47"
     inkscape:window-y="24"
     inkscape:window-maximized="1"
     inkscape:current-layer="svg6" />
  <g
     id="g865"
     transform="translate(0,11.00004)">
    <g
       style="stroke:#000000;stroke-opacity:1"
       transform="translate(-15.011466,-20.783273)"
       id="g842">
      <path
         d="m 40.863054,78.064522 27.559055,1.83728 -0.918635,23.517058 -19.475066,-1.28609 C 32.962791,95.886047 39.393237,78.799432 40.863054,78.064522 Z M 55.561216,49.770562 35.718697,37.277122 46.558592,21.109142 c 12.860892,-9.92126 24.875876,4.812317 24.875876,5.639087 z m 45.013124,28.84515 -12.125984,-24.80315 20.761154,-11.02363 8.63517,17.45407 c 2.20473,16.16798 -15.80052,19.10761 -17.27034,18.18898 z m -33.805774,-62.4672 c 9.370078,0.36746 25.721782,-1.83727 28.293962,2.38846 l 9.370082,11.02362 7.71653,-3.49082 -14.698162,19.29134 -23.333331,0.18373 9.737533,-5.14436 c -3.12336,-9.18635 -7.349082,-18.18897 -17.086614,-24.25197 z m 28.845142,87.454068 -14.14698,2.57218 -0.918635,8.45144 -9.370079,-22.414688 11.574804,-20.20998 -0.367455,11.02362 c 9.553805,1.83728 24.867287,-0.875586 27.805967,-3.312857 -0.58278,7.796945 -9.80072,23.706565 -14.577622,23.890285 z m -73.858266,-42.073488 4.776903,-13.5958 -6.7979,-4.96063 24.068241,3.12336 11.75853,20.02625 -9.370078,-5.87927 C 39.760692,67.592082 33.918744,74.685664 33.55129,86.260474 29.141842,77.809024 19.550718,65.754812 21.755442,61.529092 Z"
         style="fill:#ffffff;stroke:#000000;stroke-width:0.18372704;stroke-opacity:1"
         id="path4"
         inkscape:connector-curvature="0"
         sodipodi:nodetypes="cccccccccccccccccccccccccccccccccccccccc" />
    </g>
  </g>
</svg>
